<?xml version="1.0" encoding="UTF-8" standalone="no"?>
<svg width="151px" height="20px" viewBox="0 0 151 20" version="1.1" xmlns="http://www.w3.org/2000/svg" xmlns:xlink="http://www.w3.org/1999/xlink">
    <!-- Generator: Sketch 3.8.3 (29802) - http://www.bohemiancoding.com/sketch -->
    <title>Page 1</title>
    <desc>Created with Sketch.</desc>
    <defs></defs>
    <g id="Symbols" stroke="none" stroke-width="1" fill="none" fill-rule="evenodd">
        <g id="Footer" transform="translate(-325.000000, -115.000000)" fill="#CCCCCC">
            <g id="Fill-1-+-Fill-3-+-ZERODHA-+-©-2016,-Zerodha" transform="translate(323.000000, 115.846774)">
                <g id="Page-1" transform="translate(2.000000, 0.000000)">
                    <path d="M15.495303,4.45462779 C16.6095334,5.90473325 17.5330546,7.53375931 18.249138,9.29052264 L18.249138,0 L10.391503,0 C12.2817765,1.02561104 14.0128616,2.52548542 15.495303,4.45462779" id="Fill-1"></path>
                    <path d="M4.16737988,0.989782723 C2.71170466,0.989782723 1.31149883,1.30218657 -4.40233234e-05,1.88040772 L-4.40233234e-05,18.3223618 L17.4459589,18.3223618 C17.3106312,8.73340245 11.406135,0.989782723 4.16737988,0.989782723" id="Fill-3"></path>
                    <polygon id="Fill-6" points="28.6740988 15.4903246 38.4221833 3.64143192 28.9809413 3.64143192 28.9809413 1.05831002 42.1986801 1.05831002 42.1986801 3.21490431 32.4505956 15.0637086 42.1986801 15.0637086 42.1986801 17.6468305 28.6740988 17.6468305"></polygon>
                    <polygon id="Fill-8" points="45.8335275 1.0583277 58.059949 1.0583277 58.059949 3.68883173 48.7130931 3.68883173 48.7130931 7.95446138 56.9978423 7.95446138 56.9978423 10.584877 48.7130931 10.584877 48.7130931 15.0162557 58.1779315 15.0162557 58.1779315 17.6467598 45.8335275 17.6467598"></polygon>
                    <path d="M68.7890229,9.28147053 C69.8305267,9.28147053 70.6592217,9.03191873 71.2746678,8.53201954 C71.89029,8.03212035 72.1982771,7.35374256 72.1982771,6.49697457 L72.1982771,6.44959243 C72.1982771,5.54535391 71.8980381,4.85893176 71.2983524,4.39085639 C70.6986666,3.92286942 69.8541232,3.68878753 68.7650742,3.68878753 L64.527213,3.68878753 L64.527213,9.28147053 L68.7890229,9.28147053 Z M61.6476474,1.0583719 L69.0117809,1.0583719 C70.0502911,1.0583719 70.9708188,1.20467308 71.773364,1.49674504 C72.5759092,1.789259 73.2445355,2.19589671 73.779683,2.71718859 C74.2200043,3.17562841 74.5585436,3.70469944 74.7945967,4.30493207 C75.0306497,4.9055183 75.1485442,5.56904498 75.1485442,6.2956005 L75.1485442,6.34298263 C75.1485442,7.02242122 75.050108,7.63449938 74.8535879,8.17948232 C74.6567156,8.72455366 74.3852678,9.20668455 74.0392445,9.6251678 C73.692957,10.0439163 73.2799302,10.3993707 72.800164,10.6914426 C72.3199576,10.984045 71.7888602,11.2091985 71.2068719,11.3669032 L75.6679314,17.646804 L72.2454701,17.646804 L68.1731366,11.8645924 L68.1259436,11.8645924 L64.527213,11.8645924 L64.527213,17.646804 L61.6476474,17.646804 L61.6476474,1.0583719 Z" id="Fill-10"></path>
                    <path d="M86.6431485,15.253352 C87.4578441,15.253352 88.2061525,15.0992717 88.8876336,14.7911994 C89.5692027,14.4831272 90.1525998,14.0647323 90.6383531,13.5352193 C91.1241065,13.0060599 91.5039397,12.3858489 91.7782931,11.6750285 C92.0526464,10.9640313 92.1899111,10.205652 92.1899111,9.39997891 L92.1899111,9.35259677 C92.1899111,8.5468353 92.0526464,7.78483158 91.7782931,7.06570161 C91.5039397,6.34701365 91.1200563,5.72308995 90.6265549,5.19357692 C90.1331415,4.66450589 89.541556,4.24204467 88.8522388,3.92575124 C88.1626575,3.60989981 87.4106511,3.4518415 86.5959555,3.4518415 C85.7809076,3.4518415 85.0329514,3.60583344 84.3514703,3.91399411 C83.6698132,4.22197798 83.086152,4.64072643 82.6003986,5.16997426 C82.1146452,5.69939888 81.734812,6.3192562 81.4604587,7.03025341 C81.1861053,7.74116222 81.0491928,8.49945316 81.0491928,9.30521464 L81.0491928,9.35259677 C81.0491928,10.1582699 81.1861053,10.9206272 81.4604587,11.6394035 C81.734812,12.3584451 82.1186954,12.9824572 82.6121969,13.5115282 C83.1056103,14.0410413 83.6971957,14.4635025 84.3868651,14.7793539 C85.0760942,15.0955589 85.8281006,15.253352 86.6431485,15.253352 M86.5959555,17.9311498 C85.3213922,17.9311498 84.1567111,17.7059963 83.1027047,17.2557776 C82.0482581,16.8055589 81.1435788,16.1934808 80.3883146,15.4191895 C79.6330505,14.6453403 79.0429619,13.7407481 78.6180487,12.7058551 C78.1932237,11.6713158 77.9807671,10.5693275 77.9807671,9.39997891 L77.9807671,9.35259677 C77.9807671,8.18360174 78.1932237,7.08170192 78.6180487,6.04680893 C79.0429619,5.01218114 79.6407986,4.10352264 80.4119992,3.32145223 C81.1826715,2.53947022 82.0955391,1.9196129 83.1498977,1.46117308 C84.2039041,1.00317525 85.3685852,0.773955335 86.6431485,0.773955335 C87.9177998,0.773955335 89.0820406,0.999108871 90.1363992,1.44941594 C91.1904056,1.89954622 92.0955251,2.51206638 92.8507893,3.28591563 C93.6060534,4.06020689 94.196142,4.96471061 94.6209671,5.9993384 C95.0458802,7.03423139 95.2583368,8.1362196 95.2583368,9.30521464 L95.2583368,9.35259677 C95.2583368,10.5219454 95.0458802,11.6238452 94.6209671,12.658473 C94.196142,13.693366 93.5979531,14.6016709 92.8271928,15.3836529 C92.0560802,16.1656349 91.1432126,16.7859342 90.0892062,17.2439321 C89.0348476,17.7019299 87.8705187,17.9311498 86.5959555,17.9311498" id="Fill-12"></path>
                    <path d="M104.911798,15.0162999 C105.777032,15.0162999 106.564081,14.8778663 107.272152,14.6001151 C107.980311,14.3223638 108.582198,13.9340248 109.077725,13.434214 C109.573427,12.9342264 109.958808,12.3392094 110.234305,11.648986 C110.509451,10.9588511 110.64742,10.2094001 110.64742,9.40036787 L110.64742,9.35263213 C110.64742,8.54351148 110.509451,7.78999411 110.234305,7.09199163 C109.958808,6.39407754 109.573427,5.79525931 109.077725,5.29544851 C108.582198,4.79554932 107.980311,4.40305552 107.272152,4.11717153 C106.564081,3.83172953 105.777032,3.68878753 104.911798,3.68878753 L101.6546,3.68878753 L101.6546,15.0162999 L104.911798,15.0162999 Z M98.7750343,1.0583719 L104.935482,1.0583719 C106.225542,1.0583719 107.409681,1.26796712 108.487724,1.68636197 C109.565415,2.10511042 110.493955,2.68571836 111.272904,3.42809739 C112.051852,4.17083002 112.653739,5.04368672 113.078564,6.04675589 C113.503389,7.05017866 113.715758,8.13625496 113.715758,9.30525 L113.715758,9.35263213 C113.715758,10.5218924 113.503389,11.6119467 113.078564,12.6228834 C112.653739,13.6340853 112.051852,14.51092 111.272904,15.2533874 C110.493955,15.99612 109.565415,16.5803524 108.487724,17.0069684 C107.409681,17.433496 106.225542,17.646804 104.935482,17.646804 L98.7750343,17.646804 L98.7750343,1.0583719 Z" id="Fill-14"></path>
                    <polygon id="Fill-16" points="117.232649 1.0583277 120.112215 1.0583277 120.112215 7.95446138 128.04284 7.95446138 128.04284 1.0583277 130.922406 1.0583277 130.922406 17.6467598 128.04284 17.6467598 128.04284 10.6559502 120.112215 10.6559502 120.112215 17.6467598 117.232649 17.6467598"></polygon>
                    <path d="M145.178602,11.0587779 L142.322545,4.42342277 L139.490261,11.0587779 L145.178602,11.0587779 Z M141.024385,0.939863524 L143.715179,0.939863524 L150.984926,17.6467509 L147.916589,17.6467509 L146.240709,13.6418998 L138.428066,13.6418998 L136.728589,17.6467509 L133.754638,17.6467509 L141.024385,0.939863524 Z" id="Fill-18"></path>
                </g>
            </g>
        </g>
    </g>
</svg>